<svg width="86" height="105" viewBox="0 0 86 105" fill="none" xmlns="http://www.w3.org/2000/svg">
<g clip-path="url(#clip0_21_95)">
<path d="M10 14.9842C10.0971 12.7305 10.2486 10.755 10.7573 8.82227C11.2363 7.0081 11.987 5.3141 13.1032 3.80284C14.1354 2.40353 15.4886 1.37627 17.0624 0.640391C17.5909 0.393454 17.8576 0.404977 18.2247 0.862636C18.9145 1.72363 19.6141 2.59285 20.1771 3.5378C20.8455 4.6589 21.4283 5.8409 21.9469 7.03938C22.4621 8.22797 22.8556 9.46925 23.2918 10.6924C23.4845 11.2324 23.6524 11.7806 23.8219 12.3288C24.0113 12.9412 24.217 13.5503 24.3701 14.1709C24.8097 15.9489 25.2361 17.7301 25.6509 19.513C26.1761 21.7618 26.6716 24.0172 27.205 26.2627C27.638 28.0818 28.0709 29.9042 28.5681 31.7068C29.2167 34.0643 29.8752 36.4217 30.6341 38.7462C31.1116 40.2064 31.7355 41.6239 32.3792 43.0199C32.9965 44.355 33.6797 45.6654 34.4222 46.9347C34.9292 47.8006 35.591 48.576 36.182 49.3925C36.2528 49.4913 36.3318 49.5901 36.373 49.7004C36.4504 49.9029 36.3812 50.0296 36.1458 49.9885C35.3655 49.8535 34.572 49.7629 33.8098 49.5588C32.8895 49.3119 31.9725 49.0188 31.0984 48.6435C30.1748 48.2467 29.2826 47.7644 28.4133 47.2557C27.5425 46.747 26.6733 46.2169 25.8847 45.593C24.678 44.6365 23.5009 43.6306 22.3864 42.5688C21.4398 41.6683 20.5261 40.7151 19.7277 39.6846C18.5506 38.1651 17.446 36.5863 16.3924 34.9779C15.617 33.7926 14.9157 32.5481 14.2885 31.2788C13.6432 29.9733 13.0834 28.6218 12.5616 27.2619C12.0611 25.9631 11.5755 24.6477 11.2314 23.3011C10.8363 21.7552 10.5515 20.1765 10.3177 18.5977C10.1284 17.3153 10.0856 16.0098 10 14.9776V14.9842Z" fill="#FFF1D4" style="fill:#FFF1D4;fill:color(display-p3 1.0000 0.9453 0.8316);fill-opacity:1;"/>
<path d="M31.9001 29.3033C31.8705 29.2473 31.826 29.1947 31.8129 29.1354C31.5116 27.8019 31.2202 26.4668 30.9124 25.135C30.4695 23.2188 30.0151 21.3042 29.5674 19.3879C29.2628 18.0824 28.9698 16.7737 28.6537 15.4715C28.4759 14.7406 28.2685 14.0178 28.0643 13.2951C27.7515 12.1922 27.447 11.0842 27.1046 9.99111C26.8264 9.10543 26.5251 8.22468 26.1843 7.36204C25.7678 6.30844 25.3595 5.24332 24.8377 4.24075C24.1792 2.97313 23.4054 1.76314 22.6926 0.523508C22.6218 0.398393 22.5955 0.225537 22.6152 0.0856051C22.6218 0.0411562 22.8474 -0.00987761 22.9659 0.00329241C24.9216 0.218952 26.7424 0.890623 28.4858 1.75655C30.4234 2.71796 32.208 3.92631 33.8674 5.32069C35.9252 7.04926 37.797 8.95397 39.4284 11.0908C39.8992 11.7082 39.8696 11.6933 39.4548 12.3601C38.4901 13.9108 37.5451 15.4748 36.6298 17.0568C36.1392 17.9046 35.6947 18.7854 35.2914 19.6777C34.8189 20.7197 34.3909 21.7849 33.9859 22.8549C33.6188 23.8262 33.2846 24.8123 32.9833 25.8067C32.743 26.6034 32.58 27.4249 32.3693 28.2316C32.2722 28.602 32.1388 28.9642 32.0219 29.3296C31.9808 29.3214 31.9396 29.3132 31.8985 29.305L31.9001 29.3033Z" fill="#FFF1D4" style="fill:#FFF1D4;fill:color(display-p3 1.0000 0.9453 0.8316);fill-opacity:1;"/>
<path d="M44.5318 34.8561C43.6297 34.3129 43.3432 33.1374 43.898 32.2386C44.4528 31.3397 45.6463 31.1043 46.5419 31.6459C51.6864 34.7606 55.7543 39.217 59.2905 43.8052C59.4057 43.955 59.623 43.978 59.7662 43.8545C60.5614 43.1648 61.3384 42.4552 62.1154 41.7457C63.7271 40.2723 65.0952 38.5767 66.3743 36.8135L66.3694 36.4184C62.9995 32.0262 59.1637 27.7838 54.4455 24.9407C53.55 24.4008 53.2619 23.2369 53.8019 22.3413C54.3418 21.4457 55.5057 21.1576 56.4013 21.6976C61.2034 24.5917 65.0688 28.6547 68.4387 32.907C68.5819 33.0864 68.8568 33.0699 68.977 32.874C69.2766 32.3867 69.5631 31.8929 69.8215 31.3842C70.2825 30.4754 70.7039 29.5453 71.1122 28.6102C71.5913 27.5122 72.1131 26.424 72.4786 25.2865C72.7305 24.5012 72.9577 23.7093 73.17 22.9126C73.198 22.8055 73.1717 22.6903 73.0992 22.608C70.5393 19.7024 67.6962 17.0486 64.4268 15.0665C63.5329 14.5249 63.1756 13.3676 63.6975 12.4621C64.2193 11.5567 65.4096 11.2373 66.3167 11.7839C69.0742 13.4466 71.5238 15.4945 73.7462 17.7433C73.9388 17.9392 74.2747 17.8223 74.3059 17.5491C74.4294 16.4971 74.4804 15.4254 74.4376 14.3257C74.5364 12.472 74.2319 10.5936 73.7693 8.72185C73.4746 7.52667 72.9214 6.45331 72.4259 5.35032C72.3634 5.20875 72.2728 5.07869 72.174 4.95358C71.6621 3.94607 70.9361 3.04886 70.0553 2.34427C69.4232 1.83722 68.7103 1.43224 67.9563 1.13921C67.8856 1.09641 67.8049 1.06019 67.7061 1.0322C66.8155 0.777033 65.9249 0.49717 65.0161 0.340776C63.3534 0.0559739 61.7022 0.376993 60.0873 0.704598C58.9892 0.926842 57.9257 1.37956 56.8886 1.82734C55.0925 2.60273 53.3985 3.5806 51.8576 4.7906C50.6443 5.74213 49.4376 6.71507 48.3297 7.78349C47.1214 8.94739 46.0134 10.2167 44.8956 11.4711C44.3244 12.1115 43.8009 12.7996 43.3086 13.5042C42.7028 14.3734 42.1497 15.2805 41.5801 16.1761C41.2163 16.749 40.8458 17.3169 40.5117 17.9079C40.2038 18.4512 39.9305 19.0175 39.6605 19.5805C39.1848 20.5749 38.6761 21.556 38.2645 22.5767C37.797 23.7373 37.3871 24.9243 37.015 26.1195C36.638 27.3278 36.2709 28.5477 36.0174 29.7873C35.6141 31.748 35.4198 33.7383 35.4889 35.5113C35.4478 38.277 35.647 40.1093 36.7022 43.01C37.0693 44.0192 37.611 44.9263 38.2168 45.8021C38.2398 45.8366 38.2843 45.8761 38.3238 45.9041C39.1403 47.0878 40.0919 48.1776 41.1553 49.1423C41.2525 49.2296 41.3677 49.2971 41.4912 49.3399C41.5175 49.3547 41.5488 49.3662 41.585 49.3744C41.59 49.3744 41.5965 49.3777 41.6015 49.3794C41.9011 49.4831 42.1694 49.5489 42.4147 49.5868C42.6156 49.6329 42.8181 49.6691 43.0222 49.679C45.2068 49.7959 47.3979 49.9325 49.5529 49.3744C50.1735 49.2147 50.8172 49.1044 51.4082 48.869C52.5096 48.4295 53.6092 47.9718 54.653 47.4154C55.1617 47.1438 55.6704 46.8639 56.1692 46.5676C56.3387 46.4671 56.3799 46.2383 56.2597 46.0836C52.9376 41.7819 49.1594 37.6482 44.5318 34.8594V34.8561Z" fill="#FFF1D4" style="fill:#FFF1D4;fill:color(display-p3 1.0000 0.9453 0.8316);fill-opacity:1;"/>
</g>
<path d="M0.4 86V64.016H6.128V81.296H17.296V86H0.4ZM29.9288 86.384C27.5181 86.384 25.4488 85.968 23.7208 85.136C22.0141 84.2827 20.7021 83.0133 19.7848 81.328C18.8674 79.6427 18.4088 77.5307 18.4088 74.992C18.4088 72.4533 18.8674 70.352 19.7848 68.688C20.7021 67.0027 22.0141 65.744 23.7208 64.912C25.4488 64.0587 27.5181 63.632 29.9288 63.632C32.3394 63.632 34.3981 64.0587 36.1048 64.912C37.8328 65.744 39.1554 67.0027 40.0728 68.688C40.9901 70.352 41.4488 72.4533 41.4488 74.992C41.4488 77.5307 40.9901 79.6427 40.0728 81.328C39.1554 83.0133 37.8328 84.2827 36.1048 85.136C34.3981 85.968 32.3394 86.384 29.9288 86.384ZM29.9288 81.904C30.8461 81.904 31.6568 81.7653 32.3608 81.488C33.0648 81.2107 33.6514 80.8053 34.1208 80.272C34.6114 79.7387 34.9741 79.088 35.2088 78.32C35.4434 77.552 35.5608 76.688 35.5608 75.728V74.32C35.5608 73.3387 35.4434 72.464 35.2088 71.696C34.9741 70.928 34.6114 70.2773 34.1208 69.744C33.6514 69.2107 33.0648 68.8053 32.3608 68.528C31.6568 68.2507 30.8461 68.112 29.9288 68.112C28.9901 68.112 28.1688 68.2507 27.4648 68.528C26.7608 68.8053 26.1741 69.2107 25.7048 69.744C25.2354 70.2773 24.8834 70.928 24.6488 71.696C24.4141 72.464 24.2968 73.3387 24.2968 74.32V75.728C24.2968 76.688 24.4141 77.552 24.6488 78.32C24.8834 79.088 25.2354 79.7387 25.7048 80.272C26.1741 80.8053 26.7608 81.2107 27.4648 81.488C28.1688 81.7653 28.9901 81.904 29.9288 81.904ZM42.5685 86L50.8245 64.016H57.7045L65.9605 86H59.8485L58.5365 82.192H49.7685L48.4565 86H42.5685ZM51.1445 77.904H57.1285L55.5605 73.264C55.4752 73.0293 55.3685 72.7413 55.2405 72.4C55.1338 72.0373 55.0165 71.664 54.8885 71.28C54.7818 70.8747 54.6752 70.4693 54.5685 70.064C54.4618 69.6587 54.3552 69.3067 54.2485 69.008H54.0245C53.9392 69.4133 53.8112 69.872 53.6405 70.384C53.4912 70.896 53.3312 71.408 53.1605 71.92C53.0112 72.432 52.8725 72.88 52.7445 73.264L51.1445 77.904ZM68.5875 86V64.016H85.4515V68.496H74.3155V73.232H84.1075V77.616H74.3155V86H68.5875Z" fill="#FFF1D4" style="fill:#FFF1D4;fill:color(display-p3 1.0000 0.9453 0.8316);fill-opacity:1;"/>
<path d="M22.536 104.144C21.696 104.144 20.976 103.996 20.376 103.7C19.784 103.404 19.328 102.944 19.008 102.32C18.696 101.688 18.54 100.876 18.54 99.884C18.54 98.436 18.892 97.364 19.596 96.668C20.3 95.972 21.28 95.624 22.536 95.624C23.216 95.624 23.828 95.74 24.372 95.972C24.924 96.204 25.36 96.556 25.68 97.028C26.008 97.492 26.172 98.084 26.172 98.804H24.576C24.576 98.404 24.488 98.068 24.312 97.796C24.144 97.516 23.908 97.304 23.604 97.16C23.3 97.016 22.952 96.944 22.56 96.944C22.016 96.944 21.564 97.052 21.204 97.268C20.844 97.476 20.576 97.788 20.4 98.204C20.232 98.62 20.148 99.136 20.148 99.752V100.016C20.148 100.64 20.232 101.16 20.4 101.576C20.576 101.992 20.84 102.304 21.192 102.512C21.552 102.72 22.008 102.824 22.56 102.824C22.976 102.824 23.34 102.756 23.652 102.62C23.964 102.476 24.204 102.268 24.372 101.996C24.548 101.716 24.636 101.376 24.636 100.976H26.172C26.172 101.696 26.012 102.292 25.692 102.764C25.372 103.228 24.936 103.576 24.384 103.808C23.84 104.032 23.224 104.144 22.536 104.144ZM31.3404 104.144C30.4844 104.144 29.7444 103.992 29.1204 103.688C28.4964 103.376 28.0164 102.904 27.6804 102.272C27.3524 101.64 27.1884 100.844 27.1884 99.884C27.1884 98.916 27.3524 98.12 27.6804 97.496C28.0164 96.864 28.4964 96.396 29.1204 96.092C29.7444 95.78 30.4844 95.624 31.3404 95.624C32.2044 95.624 32.9444 95.78 33.5604 96.092C34.1844 96.396 34.6604 96.864 34.9884 97.496C35.3244 98.12 35.4924 98.916 35.4924 99.884C35.4924 100.844 35.3244 101.64 34.9884 102.272C34.6604 102.904 34.1844 103.376 33.5604 103.688C32.9444 103.992 32.2044 104.144 31.3404 104.144ZM31.3404 102.824C31.7564 102.824 32.1204 102.764 32.4324 102.644C32.7524 102.524 33.0204 102.348 33.2364 102.116C33.4524 101.876 33.6164 101.584 33.7284 101.24C33.8404 100.888 33.8964 100.484 33.8964 100.028V99.764C33.8964 99.3 33.8404 98.892 33.7284 98.54C33.6164 98.188 33.4524 97.896 33.2364 97.664C33.0204 97.424 32.7524 97.244 32.4324 97.124C32.1204 97.004 31.7564 96.944 31.3404 96.944C30.9244 96.944 30.5564 97.004 30.2364 97.124C29.9244 97.244 29.6604 97.424 29.4444 97.664C29.2284 97.896 29.0644 98.188 28.9524 98.54C28.8484 98.892 28.7964 99.3 28.7964 99.764V100.028C28.7964 100.484 28.8484 100.888 28.9524 101.24C29.0644 101.584 29.2284 101.876 29.4444 102.116C29.6604 102.348 29.9244 102.524 30.2364 102.644C30.5564 102.764 30.9244 102.824 31.3404 102.824ZM36.9472 104V95.768H42.8632V97.1H38.5072V99.308H42.4312V100.64H38.5072V104H36.9472ZM44.2597 104V95.768H50.1757V97.1H45.8197V99.308H49.7437V100.64H45.8197V104H44.2597ZM51.5722 104V95.768H57.9922V97.1H53.1322V99.128H57.4642V100.46H53.1322V102.668H58.0642V104H51.5722ZM59.6347 104V95.768H66.0547V97.1H61.1947V99.128H65.5267V100.46H61.1947V102.668H66.1267V104H59.6347Z" fill="#FFF1D4" style="fill:#FFF1D4;fill:color(display-p3 1.0000 0.9453 0.8316);fill-opacity:1;"/>
<defs>
<clipPath id="clip0_21_95">
<rect width="64.4541" height="50" fill="white" style="fill:white;fill-opacity:1;" transform="translate(10)"/>
</clipPath>
</defs>
</svg>
