<svg width="286" height="38" viewBox="0 0 286 38" fill="none" xmlns="http://www.w3.org/2000/svg">
<g clip-path="url(#clip0_80_248)">
<path d="M0 11.159C0.0723335 9.48061 0.185125 8.00942 0.563956 6.57011C0.920719 5.21907 1.47977 3.95752 2.31099 2.83207C3.07969 1.78997 4.08745 1.02495 5.2595 0.476936C5.65304 0.293038 5.85166 0.30162 6.12505 0.642445C6.63874 1.28364 7.15979 1.93096 7.57908 2.63468C8.07683 3.46958 8.51083 4.34984 8.89702 5.24236C9.28075 6.12753 9.57376 7.05193 9.89865 7.96284C10.0421 8.36496 10.1671 8.77322 10.2934 9.18147C10.4344 9.63754 10.5877 10.0912 10.7017 10.5534C11.029 11.8774 11.3465 13.2039 11.6555 14.5317C12.0466 16.2064 12.4156 17.886 12.8128 19.5583C13.1353 20.913 13.4577 22.2702 13.828 23.6126C14.311 25.3682 14.8014 27.1238 15.3666 28.8549C15.7221 29.9424 16.1868 30.998 16.6661 32.0376C17.1259 33.0319 17.6347 34.0078 18.1876 34.953C18.5652 35.5979 19.058 36.1753 19.4982 36.7834C19.5509 36.857 19.6097 36.9306 19.6404 37.0127C19.698 37.1635 19.6465 37.2579 19.4712 37.2272C18.8901 37.1267 18.2991 37.0593 17.7315 36.9073C17.0462 36.7234 16.3633 36.5051 15.7123 36.2256C15.0245 35.9301 14.36 35.5709 13.7127 35.1921C13.0642 34.8133 12.4168 34.4185 11.8296 33.9538C10.9309 33.2415 10.0544 32.4925 9.22436 31.7017C8.51941 31.0311 7.83899 30.3212 7.24438 29.5538C6.3678 28.4222 5.54516 27.2464 4.76052 26.0487C4.18308 25.1659 3.66081 24.2391 3.19371 23.2939C2.71312 22.3216 2.29628 21.3151 1.90764 20.3024C1.53494 19.3351 1.17327 18.3556 0.917041 17.3527C0.622803 16.2015 0.410707 15.0258 0.236616 13.85C0.0956273 12.895 0.0637515 11.9228 0 11.1541L0 11.159Z" fill="#FFF1D4" style="fill:#FFF1D4;fill:color(display-p3 1.0000 0.9453 0.8316);fill-opacity:1;"/>
<path d="M16.3093 21.8227C16.2873 21.781 16.2542 21.7418 16.2444 21.6977C16.02 20.7046 15.803 19.7103 15.5738 18.7185C15.244 17.2915 14.9056 15.8656 14.5721 14.4386C14.3453 13.4664 14.1271 12.4917 13.8917 11.522C13.7593 10.9776 13.6048 10.4394 13.4528 9.9012C13.2198 9.07978 12.993 8.25469 12.738 7.44063C12.5308 6.78105 12.3065 6.12515 12.0527 5.48273C11.7425 4.69809 11.4385 3.90488 11.0498 3.15825C10.5594 2.21424 9.98323 1.31313 9.45238 0.389961C9.39966 0.296786 9.38004 0.168057 9.39476 0.0638473C9.39966 0.0307456 9.56762 -0.00726012 9.65589 0.00254781C11.1124 0.163153 12.4683 0.663357 13.7666 1.30823C15.2096 2.02421 16.5386 2.92408 17.7744 3.9625C19.3069 5.24979 20.7008 6.66826 21.9158 8.2596C22.2664 8.71934 22.2444 8.70831 21.9354 9.20484C21.217 10.3597 20.5133 11.5244 19.8316 12.7026C19.4663 13.334 19.1353 13.9899 18.8349 14.6544C18.483 15.4304 18.1643 16.2236 17.8627 17.0205C17.5893 17.7439 17.3404 18.4782 17.116 19.2187C16.9371 19.8121 16.8157 20.4239 16.6588 21.0246C16.5864 21.3005 16.4871 21.5702 16.4001 21.8423C16.3694 21.8362 16.3388 21.8301 16.3081 21.824L16.3093 21.8227Z" fill="#FFF1D4" style="fill:#FFF1D4;fill:color(display-p3 1.0000 0.9453 0.8316);fill-opacity:1;"/>
<path d="M25.7164 25.9579C25.0446 25.5533 24.8312 24.678 25.2444 24.0086C25.6576 23.3392 26.5464 23.1639 27.2133 23.5672C31.0446 25.8868 34.074 29.2056 36.7074 32.6224C36.7932 32.734 36.9551 32.7511 37.0617 32.6592C37.6539 32.1455 38.2325 31.6171 38.8112 31.0887C40.0115 29.9914 41.0303 28.7287 41.9829 27.4156L41.9792 27.1214C39.4696 23.8504 36.613 20.6911 33.0993 18.5738C32.4324 18.1716 32.2178 17.3049 32.62 16.6379C33.0221 15.971 33.8889 15.7564 34.5558 16.1586C38.132 18.3139 41.0106 21.3396 43.5202 24.5063C43.6269 24.64 43.8316 24.6277 43.9211 24.4818C44.1443 24.1189 44.3576 23.7511 44.5501 23.3723C44.8934 22.6956 45.2072 22.0029 45.5113 21.3065C45.868 20.4888 46.2567 19.6784 46.5288 18.8312C46.7164 18.2464 46.8856 17.6567 47.0437 17.0634C47.0646 16.9837 47.045 16.8978 46.991 16.8365C45.0846 14.6727 42.9673 12.6964 40.5325 11.2203C39.8668 10.8169 39.6007 9.95506 39.9894 9.28076C40.378 8.60647 41.2644 8.36862 41.9399 8.77565C43.9935 10.0139 45.8178 11.539 47.4728 13.2137C47.6163 13.3596 47.8664 13.2726 47.8897 13.0691C47.9816 12.2857 48.0196 11.4875 47.9878 10.6686C48.0613 9.28812 47.8345 7.88926 47.49 6.49531C47.2705 5.60524 46.8586 4.80589 46.4896 3.98448C46.443 3.87904 46.3756 3.78219 46.302 3.68902C45.9207 2.93871 45.3801 2.27054 44.7242 1.74582C44.2534 1.36822 43.7225 1.06662 43.161 0.848395C43.1083 0.816519 43.0482 0.789548 42.9747 0.768706C42.3114 0.578677 41.6482 0.370259 40.9714 0.253789C39.7332 0.041693 38.5035 0.280761 37.3008 0.524733C36.4831 0.690242 35.6911 1.02739 34.9187 1.36086C33.5811 1.9383 32.3196 2.66654 31.1721 3.56764C30.2685 4.27627 29.3699 5.00083 28.5448 5.79649C27.6449 6.66327 26.8198 7.60851 25.9873 8.54272C25.5619 9.01963 25.1721 9.53209 24.8055 10.0568C24.3543 10.7041 23.9424 11.3797 23.5182 12.0466C23.2473 12.4732 22.9714 12.8962 22.7225 13.3363C22.4933 13.7409 22.2898 14.1627 22.0887 14.5819C21.7344 15.3224 21.3556 16.0531 21.0491 16.8132C20.7009 17.6776 20.3956 18.5615 20.1185 19.4516C19.8378 20.3515 19.5644 21.2599 19.3756 22.1831C19.0752 23.6432 18.9305 25.1255 18.982 26.4459C18.9514 28.5055 19.0997 29.8701 19.8856 32.0303C20.159 32.7818 20.5623 33.4573 21.0135 34.1095C21.0307 34.1353 21.0638 34.1647 21.0932 34.1855C21.7013 35.067 22.4099 35.8786 23.2019 36.5971C23.2742 36.662 23.36 36.7123 23.452 36.7442C23.4716 36.7552 23.4949 36.7638 23.5219 36.7699C23.5256 36.7699 23.5305 36.7724 23.5341 36.7736C23.7573 36.8508 23.9571 36.8999 24.1398 36.9281C24.2893 36.9624 24.4401 36.9894 24.5922 36.9967C26.2191 37.0838 27.8509 37.1855 29.4557 36.7699C29.9179 36.651 30.3972 36.5689 30.8374 36.3936C31.6576 36.0662 32.4765 35.7254 33.2538 35.311C33.6326 35.1087 34.0115 34.9003 34.3829 34.6796C34.5092 34.6048 34.5399 34.4344 34.4504 34.3192C31.9763 31.1157 29.1627 28.0372 25.7164 25.9604V25.9579Z" fill="#FFF1D4" style="fill:#FFF1D4;fill:color(display-p3 1.0000 0.9453 0.8316);fill-opacity:1;"/>
</g>
<path d="M62.4 29V7.016H68.128V24.296H79.296V29H62.4ZM91.9288 29.384C89.5181 29.384 87.4488 28.968 85.7208 28.136C84.0141 27.2827 82.7021 26.0133 81.7848 24.328C80.8674 22.6427 80.4088 20.5307 80.4088 17.992C80.4088 15.4533 80.8674 13.352 81.7848 11.688C82.7021 10.0027 84.0141 8.744 85.7208 7.912C87.4488 7.05866 89.5181 6.632 91.9288 6.632C94.3394 6.632 96.3981 7.05866 98.1048 7.912C99.8328 8.744 101.155 10.0027 102.073 11.688C102.99 13.352 103.449 15.4533 103.449 17.992C103.449 20.5307 102.99 22.6427 102.073 24.328C101.155 26.0133 99.8328 27.2827 98.1048 28.136C96.3981 28.968 94.3394 29.384 91.9288 29.384ZM91.9288 24.904C92.8461 24.904 93.6568 24.7653 94.3608 24.488C95.0648 24.2107 95.6514 23.8053 96.1208 23.272C96.6114 22.7387 96.9741 22.088 97.2088 21.32C97.4434 20.552 97.5608 19.688 97.5608 18.728V17.32C97.5608 16.3387 97.4434 15.464 97.2088 14.696C96.9741 13.928 96.6114 13.2773 96.1208 12.744C95.6514 12.2107 95.0648 11.8053 94.3608 11.528C93.6568 11.2507 92.8461 11.112 91.9288 11.112C90.9901 11.112 90.1688 11.2507 89.4648 11.528C88.7608 11.8053 88.1741 12.2107 87.7048 12.744C87.2354 13.2773 86.8834 13.928 86.6488 14.696C86.4141 15.464 86.2968 16.3387 86.2968 17.32V18.728C86.2968 19.688 86.4141 20.552 86.6488 21.32C86.8834 22.088 87.2354 22.7387 87.7048 23.272C88.1741 23.8053 88.7608 24.2107 89.4648 24.488C90.1688 24.7653 90.9901 24.904 91.9288 24.904ZM104.569 29L112.825 7.016H119.705L127.961 29H121.849L120.537 25.192H111.769L110.457 29H104.569ZM113.145 20.904H119.129L117.561 16.264C117.475 16.0293 117.369 15.7413 117.241 15.4C117.134 15.0373 117.017 14.664 116.889 14.28C116.782 13.8747 116.675 13.4693 116.569 13.064C116.462 12.6587 116.355 12.3067 116.249 12.008H116.025C115.939 12.4133 115.811 12.872 115.641 13.384C115.491 13.896 115.331 14.408 115.161 14.92C115.011 15.432 114.873 15.88 114.745 16.264L113.145 20.904ZM130.588 29V7.016H147.452V11.496H136.316V16.232H146.108V20.616H136.316V29H130.588ZM167.19 29.384C164.95 29.384 163.03 28.9893 161.43 28.2C159.851 27.4107 158.635 26.184 157.782 24.52C156.95 22.8347 156.534 20.6693 156.534 18.024C156.534 14.1627 157.472 11.304 159.35 9.448C161.227 7.592 163.84 6.664 167.19 6.664C169.003 6.664 170.635 6.97333 172.086 7.592C173.558 8.21067 174.72 9.14933 175.574 10.408C176.448 11.6453 176.886 13.224 176.886 15.144H172.63C172.63 14.0773 172.395 13.1813 171.926 12.456C171.478 11.7093 170.848 11.144 170.038 10.76C169.227 10.376 168.299 10.184 167.254 10.184C165.803 10.184 164.598 10.472 163.638 11.048C162.678 11.6027 161.963 12.4347 161.494 13.544C161.046 14.6533 160.822 16.0293 160.822 17.672V18.376C160.822 20.04 161.046 21.4267 161.494 22.536C161.963 23.6453 162.667 24.4773 163.606 25.032C164.566 25.5867 165.782 25.864 167.254 25.864C168.363 25.864 169.334 25.6827 170.166 25.32C170.998 24.936 171.638 24.3813 172.086 23.656C172.555 22.9093 172.79 22.0027 172.79 20.936H176.886C176.886 22.856 176.459 24.4453 175.606 25.704C174.752 26.9413 173.59 27.8693 172.118 28.488C170.667 29.0853 169.024 29.384 167.19 29.384ZM190.668 29.384C188.386 29.384 186.412 28.9787 184.748 28.168C183.084 27.336 181.804 26.0773 180.908 24.392C180.034 22.7067 179.596 20.584 179.596 18.024C179.596 15.4427 180.034 13.32 180.908 11.656C181.804 9.97066 183.084 8.72267 184.748 7.912C186.412 7.08 188.386 6.664 190.668 6.664C192.972 6.664 194.946 7.08 196.588 7.912C198.252 8.72267 199.522 9.97066 200.396 11.656C201.292 13.32 201.74 15.4427 201.74 18.024C201.74 20.584 201.292 22.7067 200.396 24.392C199.522 26.0773 198.252 27.336 196.588 28.168C194.946 28.9787 192.972 29.384 190.668 29.384ZM190.668 25.864C191.778 25.864 192.748 25.704 193.58 25.384C194.434 25.064 195.148 24.5947 195.724 23.976C196.3 23.336 196.738 22.5573 197.036 21.64C197.335 20.7013 197.484 19.624 197.484 18.408V17.704C197.484 16.4667 197.335 15.3787 197.036 14.44C196.738 13.5013 196.3 12.7227 195.724 12.104C195.148 11.464 194.434 10.984 193.58 10.664C192.748 10.344 191.778 10.184 190.668 10.184C189.559 10.184 188.578 10.344 187.724 10.664C186.892 10.984 186.188 11.464 185.612 12.104C185.036 12.7227 184.599 13.5013 184.3 14.44C184.023 15.3787 183.884 16.4667 183.884 17.704V18.408C183.884 19.624 184.023 20.7013 184.3 21.64C184.599 22.5573 185.036 23.336 185.612 23.976C186.188 24.5947 186.892 25.064 187.724 25.384C188.578 25.704 189.559 25.864 190.668 25.864ZM205.62 29V7.048H221.396V10.6H209.78V16.488H220.244V20.04H209.78V29H205.62ZM225.12 29V7.048H240.896V10.6H229.28V16.488H239.744V20.04H229.28V29H225.12ZM244.62 29V7.048H261.74V10.6H248.78V16.008H260.332V19.56H248.78V25.448H261.932V29H244.62ZM266.12 29V7.048H283.24V10.6H270.28V16.008H281.832V19.56H270.28V25.448H283.432V29H266.12Z" fill="#FFF1D4" style="fill:#FFF1D4;fill:color(display-p3 1.0000 0.9453 0.8316);fill-opacity:1;"/>
<defs>
<clipPath id="clip0_80_248">
<rect width="48" height="37.2358" fill="white" style="fill:white;fill-opacity:1;"/>
</clipPath>
</defs>
</svg>
