<svg width="65" height="50" viewBox="0 0 65 50" fill="none" xmlns="http://www.w3.org/2000/svg">
<g clip-path="url(#clip0_92_50)">
<path d="M0 14.9843C0.0971289 12.7305 0.248584 10.755 0.757277 8.82234C1.23634 7.00817 1.98703 5.31418 3.10319 3.80292C4.13539 2.4036 5.48861 1.37634 7.06243 0.640464C7.59087 0.393526 7.85757 0.40505 8.22468 0.862708C8.91446 1.7237 9.61412 2.59292 10.1771 3.53787C10.8455 4.65897 11.4283 5.84098 11.9469 7.03945C12.4621 8.22804 12.8556 9.46932 13.2918 10.6925C13.4845 11.2325 13.6524 11.7807 13.8219 12.3289C14.0113 12.9413 14.217 13.5504 14.3701 14.171C14.8097 15.949 15.2361 17.7302 15.6509 19.5131C16.1761 21.7619 16.6716 24.0173 17.205 26.2627C17.638 28.0819 18.0709 29.9043 18.5681 31.7069C19.2167 34.0643 19.8752 36.4218 20.6341 38.7463C21.1116 40.2065 21.7355 41.6239 22.3792 43.02C22.9965 44.3551 23.6797 45.6655 24.4222 46.9347C24.9292 47.8007 25.591 48.5761 26.182 49.3926C26.2528 49.4914 26.3318 49.5901 26.373 49.7004C26.4504 49.9029 26.3812 50.0297 26.1458 49.9885C25.3655 49.8536 24.572 49.763 23.8098 49.5589C22.8895 49.3119 21.9725 49.0189 21.0984 48.6436C20.1748 48.2468 19.2826 47.7645 18.4133 47.2558C17.5425 46.7471 16.6733 46.217 15.8847 45.5931C14.678 44.6366 13.5009 43.6307 12.3864 42.5689C11.4398 41.6684 10.5261 40.7152 9.72771 39.6846C8.55064 38.1652 7.446 36.5864 6.3924 34.978C5.61702 33.7927 4.91571 32.5481 4.28849 31.2789C3.64316 29.9734 3.08343 28.6218 2.56157 27.262C2.06111 25.9631 1.57546 24.6478 1.2314 23.3011C0.836297 21.7553 0.551495 20.1765 0.317727 18.5978C0.128408 17.3154 0.0856052 16.0099 0 14.9777L0 14.9843Z" fill="#EB622E" style="fill:#EB622E;fill:color(display-p3 0.9216 0.3843 0.1804);fill-opacity:1;"/>
<path d="M21.9001 29.3033C21.8705 29.2474 21.826 29.1947 21.8129 29.1354C21.5116 27.802 21.2202 26.4668 20.9124 25.135C20.4695 23.2188 20.0152 21.3042 19.5674 19.388C19.2628 18.0825 18.9698 16.7737 18.6537 15.4715C18.4759 14.7406 18.2685 14.0179 18.0644 13.2952C17.7516 12.1922 17.447 11.0843 17.1046 9.99115C16.8264 9.10546 16.5251 8.22472 16.1843 7.36208C15.7678 6.30848 15.3596 5.24335 14.8377 4.24079C14.1792 2.97317 13.4055 1.76318 12.6926 0.523547C12.6218 0.398431 12.5955 0.225575 12.6153 0.0856432C12.6218 0.0411944 12.8474 -0.00983947 12.9659 0.00333056C14.9217 0.21899 16.7424 0.890661 18.4858 1.75659C20.4234 2.718 22.208 3.92635 23.8674 5.32073C25.9252 7.04929 27.797 8.95401 29.4284 11.0908C29.8993 11.7082 29.8696 11.6934 29.4548 12.3601C28.4901 13.9109 27.5451 15.4748 26.6298 17.0569C26.1392 17.9047 25.6947 18.7854 25.2914 19.6777C24.8189 20.7198 24.3909 21.7849 23.9859 22.855C23.6188 23.8263 23.2846 24.8124 22.9834 25.8067C22.743 26.6035 22.58 27.425 22.3693 28.2316C22.2722 28.602 22.1388 28.9642 22.0219 29.3297C21.9808 29.3215 21.9396 29.3132 21.8985 29.305L21.9001 29.3033Z" fill="#EB622E" style="fill:#EB622E;fill:color(display-p3 0.9216 0.3843 0.1804);fill-opacity:1;"/>
<path d="M34.5318 34.8562C33.6297 34.3129 33.3432 33.1375 33.898 32.2386C34.4528 31.3398 35.6463 31.1044 36.5419 31.646C41.6864 34.7607 45.7543 39.2171 49.2905 43.8052C49.4057 43.955 49.623 43.9781 49.7662 43.8546C50.5614 43.1648 51.3384 42.4553 52.1155 41.7457C53.7271 40.2724 55.0952 38.5767 56.3743 36.8136L56.3694 36.4185C52.9995 32.0263 49.1637 27.7839 44.4456 24.9408C43.55 24.4008 43.2619 23.2369 43.8019 22.3414C44.3418 21.4458 45.5057 21.1577 46.4013 21.6977C51.2034 24.5918 55.0688 28.6547 58.4387 32.907C58.5819 33.0865 58.8569 33.07 58.977 32.8741C59.2767 32.3868 59.5631 31.8929 59.8216 31.3842C60.2825 30.4755 60.704 29.5454 61.1122 28.6103C61.5913 27.5122 62.1131 26.4241 62.4786 25.2865C62.7305 24.5012 62.9577 23.7094 63.17 22.9126C63.198 22.8056 63.1717 22.6904 63.0993 22.6081C60.5393 19.7024 57.6962 17.0487 54.4268 15.0666C53.5329 14.5249 53.1756 13.3676 53.6975 12.4622C54.2194 11.5568 55.4096 11.2374 56.3167 11.7839C59.0742 13.4467 61.5238 15.4946 63.7462 17.7434C63.9388 17.9393 64.2747 17.8224 64.306 17.5491C64.4294 16.4972 64.4805 15.4254 64.4377 14.3258C64.5364 12.4721 64.2319 10.5937 63.7693 8.7219C63.4746 7.52672 62.9215 6.45337 62.4259 5.35038C62.3634 5.2088 62.2728 5.07875 62.1741 4.95363C61.6621 3.94612 60.9361 3.04892 60.0553 2.34432C59.4232 1.83727 58.7103 1.4323 57.9564 1.13926C57.8856 1.09646 57.8049 1.06024 57.7061 1.03226C56.8155 0.777086 55.9249 0.497223 55.0162 0.340829C53.3534 0.0560273 51.7022 0.377047 50.0873 0.704651C48.9892 0.926895 47.9257 1.37962 46.8886 1.8274C45.0925 2.60278 43.3985 3.58066 41.8577 4.79065C40.6444 5.74219 39.4377 6.71512 38.3297 7.78354C37.1214 8.94744 36.0135 10.2167 34.8956 11.4711C34.3244 12.1115 33.8009 12.7997 33.3087 13.5043C32.7028 14.3735 32.1497 15.2806 31.5801 16.1761C31.2163 16.749 30.8459 17.317 30.5117 17.908C30.2038 18.4513 29.9305 19.0176 29.6606 19.5806C29.1848 20.5749 28.6761 21.5561 28.2645 22.5768C27.797 23.7374 27.3871 24.9243 27.015 26.1195C26.638 27.3279 26.2709 28.5477 26.0174 29.7874C25.6141 31.7481 25.4198 33.7384 25.489 35.5114C25.4478 38.2771 25.647 40.1094 26.7022 43.0101C27.0694 44.0192 27.611 44.9263 28.2168 45.8021C28.2398 45.8367 28.2843 45.8762 28.3238 45.9042C29.1403 47.0878 30.0919 48.1777 31.1554 49.1424C31.2525 49.2296 31.3677 49.2971 31.4912 49.3399C31.5175 49.3547 31.5488 49.3663 31.585 49.3745C31.59 49.3745 31.5966 49.3778 31.6015 49.3794C31.9011 49.4831 32.1695 49.549 32.4147 49.5869C32.6156 49.6329 32.8181 49.6692 33.0222 49.679C35.2068 49.7959 37.398 49.9326 39.5529 49.3745C40.1735 49.2148 40.8172 49.1045 41.4082 48.8691C42.5096 48.4295 43.6093 47.9719 44.653 47.4154C45.1617 47.1438 45.6704 46.8639 46.1692 46.5676C46.3388 46.4672 46.3799 46.2384 46.2597 46.0836C42.9376 41.782 39.1594 37.6482 34.5318 34.8595V34.8562Z" fill="#EB622E" style="fill:#EB622E;fill:color(display-p3 0.9216 0.3843 0.1804);fill-opacity:1;"/>
</g>
<defs>
<clipPath id="clip0_92_50">
<rect width="64.4541" height="50" fill="white" style="fill:white;fill-opacity:1;"/>
</clipPath>
</defs>
</svg>
