<svg width="65" height="50" viewBox="0 0 65 50" fill="none" xmlns="http://www.w3.org/2000/svg">
<g clip-path="url(#clip0_21_96)">
<path d="M0 14.9842C0.0971289 12.7305 0.248584 10.755 0.757277 8.82227C1.23634 7.0081 1.98703 5.3141 3.10319 3.80284C4.13539 2.40353 5.48861 1.37627 7.06243 0.640391C7.59087 0.393454 7.85757 0.404977 8.22468 0.862636C8.91446 1.72363 9.61412 2.59285 10.1771 3.5378C10.8455 4.6589 11.4283 5.8409 11.9469 7.03938C12.4621 8.22797 12.8556 9.46925 13.2918 10.6924C13.4845 11.2324 13.6524 11.7806 13.8219 12.3288C14.0113 12.9412 14.217 13.5503 14.3701 14.1709C14.8097 15.9489 15.2361 17.7301 15.6509 19.513C16.1761 21.7618 16.6716 24.0172 17.205 26.2627C17.638 28.0818 18.0709 29.9042 18.5681 31.7068C19.2167 34.0643 19.8752 36.4217 20.6341 38.7462C21.1116 40.2064 21.7355 41.6239 22.3792 43.0199C22.9965 44.355 23.6797 45.6654 24.4222 46.9347C24.9292 47.8006 25.591 48.576 26.182 49.3925C26.2528 49.4913 26.3318 49.5901 26.373 49.7004C26.4504 49.9029 26.3812 50.0296 26.1458 49.9885C25.3655 49.8535 24.572 49.7629 23.8098 49.5588C22.8895 49.3119 21.9725 49.0188 21.0984 48.6435C20.1748 48.2467 19.2826 47.7644 18.4133 47.2557C17.5425 46.747 16.6733 46.2169 15.8847 45.593C14.678 44.6365 13.5009 43.6306 12.3864 42.5688C11.4398 41.6683 10.5261 40.7151 9.72771 39.6846C8.55064 38.1651 7.446 36.5863 6.3924 34.9779C5.61702 33.7926 4.91571 32.5481 4.28849 31.2788C3.64316 29.9733 3.08343 28.6218 2.56157 27.2619C2.06111 25.9631 1.57546 24.6477 1.2314 23.3011C0.836297 21.7552 0.551495 20.1765 0.317727 18.5977C0.128408 17.3153 0.0856052 16.0098 0 14.9776L0 14.9842Z" fill="#FFF1D4" style="fill:#FFF1D4;fill:color(display-p3 1.0000 0.9453 0.8316);fill-opacity:1;"/>
<path d="M21.9001 29.3033C21.8705 29.2473 21.826 29.1947 21.8129 29.1354C21.5116 27.8019 21.2202 26.4668 20.9124 25.135C20.4695 23.2188 20.0151 21.3042 19.5674 19.3879C19.2628 18.0824 18.9698 16.7737 18.6537 15.4715C18.4759 14.7406 18.2685 14.0178 18.0643 13.2951C17.7515 12.1922 17.447 11.0842 17.1046 9.99111C16.8264 9.10543 16.5251 8.22468 16.1843 7.36204C15.7678 6.30844 15.3595 5.24332 14.8377 4.24075C14.1792 2.97313 13.4054 1.76314 12.6926 0.523508C12.6218 0.398393 12.5955 0.225537 12.6152 0.0856051C12.6218 0.0411562 12.8474 -0.00987761 12.9659 0.00329241C14.9216 0.218952 16.7424 0.890623 18.4858 1.75655C20.4234 2.71796 22.208 3.92631 23.8674 5.32069C25.9252 7.04926 27.797 8.95397 29.4284 11.0908C29.8992 11.7082 29.8696 11.6933 29.4548 12.3601C28.4901 13.9108 27.5451 15.4748 26.6298 17.0568C26.1392 17.9046 25.6947 18.7854 25.2914 19.6777C24.8189 20.7197 24.3909 21.7849 23.9859 22.8549C23.6188 23.8262 23.2846 24.8123 22.9833 25.8067C22.743 26.6034 22.58 27.4249 22.3693 28.2316C22.2722 28.602 22.1388 28.9642 22.0219 29.3296C21.9808 29.3214 21.9396 29.3132 21.8985 29.305L21.9001 29.3033Z" fill="#FFF1D4" style="fill:#FFF1D4;fill:color(display-p3 1.0000 0.9453 0.8316);fill-opacity:1;"/>
<path d="M34.5318 34.8561C33.6297 34.3129 33.3432 33.1374 33.898 32.2386C34.4528 31.3397 35.6463 31.1043 36.5419 31.6459C41.6864 34.7606 45.7543 39.217 49.2905 43.8052C49.4057 43.955 49.623 43.978 49.7662 43.8545C50.5614 43.1648 51.3384 42.4552 52.1154 41.7457C53.7271 40.2723 55.0952 38.5767 56.3743 36.8135L56.3694 36.4184C52.9995 32.0262 49.1637 27.7838 44.4455 24.9407C43.55 24.4008 43.2619 23.2369 43.8019 22.3413C44.3418 21.4457 45.5057 21.1576 46.4013 21.6976C51.2034 24.5917 55.0688 28.6547 58.4387 32.907C58.5819 33.0864 58.8568 33.0699 58.977 32.874C59.2766 32.3867 59.5631 31.8929 59.8215 31.3842C60.2825 30.4754 60.7039 29.5453 61.1122 28.6102C61.5913 27.5122 62.1131 26.424 62.4786 25.2865C62.7305 24.5012 62.9577 23.7093 63.17 22.9126C63.198 22.8055 63.1717 22.6903 63.0992 22.608C60.5393 19.7024 57.6962 17.0486 54.4268 15.0665C53.5329 14.5249 53.1756 13.3676 53.6975 12.4621C54.2193 11.5567 55.4096 11.2373 56.3167 11.7839C59.0742 13.4466 61.5238 15.4945 63.7462 17.7433C63.9388 17.9392 64.2747 17.8223 64.3059 17.5491C64.4294 16.4971 64.4804 15.4254 64.4376 14.3257C64.5364 12.472 64.2319 10.5936 63.7693 8.72185C63.4746 7.52667 62.9214 6.45331 62.4259 5.35032C62.3634 5.20875 62.2728 5.07869 62.174 4.95358C61.6621 3.94607 60.9361 3.04886 60.0553 2.34427C59.4232 1.83722 58.7103 1.43224 57.9563 1.13921C57.8856 1.09641 57.8049 1.06019 57.7061 1.0322C56.8155 0.777033 55.9249 0.49717 55.0161 0.340776C53.3534 0.0559739 51.7022 0.376993 50.0873 0.704598C48.9892 0.926842 47.9257 1.37956 46.8886 1.82734C45.0925 2.60273 43.3985 3.5806 41.8576 4.7906C40.6443 5.74213 39.4376 6.71507 38.3297 7.78349C37.1214 8.94739 36.0134 10.2167 34.8956 11.4711C34.3244 12.1115 33.8009 12.7996 33.3086 13.5042C32.7028 14.3734 32.1497 15.2805 31.5801 16.1761C31.2163 16.749 30.8458 17.3169 30.5117 17.9079C30.2038 18.4512 29.9305 19.0175 29.6605 19.5805C29.1848 20.5749 28.6761 21.556 28.2645 22.5767C27.797 23.7373 27.3871 24.9243 27.015 26.1195C26.638 27.3278 26.2709 28.5477 26.0174 29.7873C25.6141 31.748 25.4198 33.7383 25.4889 35.5113C25.4478 38.277 25.647 40.1093 26.7022 43.01C27.0693 44.0192 27.611 44.9263 28.2168 45.8021C28.2398 45.8366 28.2843 45.8761 28.3238 45.9041C29.1403 47.0878 30.0919 48.1776 31.1553 49.1423C31.2525 49.2296 31.3677 49.2971 31.4912 49.3399C31.5175 49.3547 31.5488 49.3662 31.585 49.3744C31.59 49.3744 31.5965 49.3777 31.6015 49.3794C31.9011 49.4831 32.1694 49.5489 32.4147 49.5868C32.6156 49.6329 32.8181 49.6691 33.0222 49.679C35.2068 49.7959 37.3979 49.9325 39.5529 49.3744C40.1735 49.2147 40.8172 49.1044 41.4082 48.869C42.5096 48.4295 43.6092 47.9718 44.653 47.4154C45.1617 47.1438 45.6704 46.8639 46.1692 46.5676C46.3387 46.4671 46.3799 46.2383 46.2597 46.0836C42.9376 41.7819 39.1594 37.6482 34.5318 34.8594V34.8561Z" fill="#FFF1D4" style="fill:#FFF1D4;fill:color(display-p3 1.0000 0.9453 0.8316);fill-opacity:1;"/>
</g>
<defs>
<clipPath id="clip0_21_96">
<rect width="64.4541" height="50" fill="white" style="fill:white;fill-opacity:1;"/>
</clipPath>
</defs>
</svg>
